<svg viewBox="0 0 200 200" xmlns="http://www.w3.org/2000/svg">
  <defs>
    <radialGradient id="discGrad" cx="50%" cy="40%" r="60%">
      <stop offset="0%" stop-color="#4a4f54"/>
      <stop offset="100%" stop-color="#2c3034"/>
    </radialGradient>
  </defs>
  <circle cx="100" cy="100" r="78" fill="url(#discGrad)" stroke="#52585d" stroke-width="2"/>
  <!-- ventilation slots -->
  <g stroke="#1c1f22" stroke-width="3" stroke-linecap="round" opacity="0.7">
    <line x1="100" y1="34" x2="100" y2="50"/>
    <line x1="146" y1="54" x2="135" y2="66"/>
    <line x1="166" y1="100" x2="150" y2="100"/>
    <line x1="146" y1="146" x2="135" y2="134"/>
    <line x1="100" y1="166" x2="100" y2="150"/>
    <line x1="54" y1="146" x2="65" y2="134"/>
    <line x1="34" y1="100" x2="50" y2="100"/>
    <line x1="54" y1="54" x2="65" y2="66"/>
  </g>
  <!-- hub circle -->
  <circle cx="100" cy="100" r="34" fill="#1c1f22" stroke="#52585d" stroke-width="2"/>
  <circle cx="100" cy="100" r="10" fill="#3a3f44"/>
  <!-- lug holes -->
  <g fill="#0f1113">
    <circle cx="100" cy="76" r="5"/>
    <circle cx="121" cy="89" r="5"/>
    <circle cx="121" cy="111" r="5"/>
    <circle cx="100" cy="124" r="5"/>
    <circle cx="79" cy="111" r="5"/>
    <circle cx="79" cy="89" r="5"/>
  </g>
  <!-- accent rim highlight -->
  <circle cx="100" cy="100" r="78" fill="none" stroke="#e8a33d" stroke-width="2" opacity="0.5"/>
</svg>
